<svg width="34" height="30" viewBox="0 0 34 30" fill="none" xmlns="http://www.w3.org/2000/svg">
<path d="M8.33516 8.63058H11.1029L13.8389 13.3758L15.525 10.4777L10.5303 1.78344H7.15806L9.48045 5.79617H6.71267L3.40405 0H0L10.7848 18.6943L12.4391 15.7962L8.33516 8.63058Z" fill="black"/>
<path d="M19.7876 15.9872H16.988L19.6922 11.3057H16.3517L11.3252 19.9681L13.0113 22.8662L15.3655 18.8216H18.1969L13.3295 27.0381L15.0156 29.9999L25.8322 11.3057H22.4918L19.7876 15.9872Z" fill="black"/>
<path d="M19.8509 4.74498V7.13352H14.7607L16.4787 10.0316H26.4999L28.1861 7.13352H23.1277V4.74498H31.6219L33.3399 1.7832H11.6748L13.3927 4.74498H19.8509Z" fill="black"/>
</svg>
