<svg width="180" height="30" viewBox="0 0 180 30" fill="none" xmlns="http://www.w3.org/2000/svg">
<path d="M80.1703 8.18457H88.7282C90.3189 8.21642 91.7187 8.28012 92.8958 8.4075C94.0729 8.53489 95.0591 8.72597 95.7908 8.98075C96.5225 9.23553 96.9679 9.71324 97.127 10.4457C97.2542 11.1464 97.0952 12.1018 96.618 13.2801L96.5543 13.4393L96.4907 13.5667L96.4271 13.726L96.3634 13.8852L96.2998 14.0445L96.2362 14.1718L96.1407 14.3311L96.0771 14.4585C95.9817 14.6495 95.8544 14.8725 95.759 15.0636C95.6317 15.2546 95.5363 15.4457 95.3772 15.6368C95.25 15.8279 95.0909 16.019 94.9 16.2101C94.741 16.4011 94.5183 16.5604 94.2956 16.7515C93.9138 17.0699 93.4684 17.3247 93.023 17.5476C92.5776 17.7706 92.0686 17.9298 91.5278 18.0253C91.0188 18.1209 90.4779 18.1846 89.9371 18.2483C89.3963 18.312 88.8236 18.3438 88.2828 18.3757H88.0601H87.8374L87.5829 18.4075H87.3602H86.9148H86.5012H86.4376H86.4058H86.1513H85.9286H85.6741H85.4196L81.9201 18.3757L80.4885 21.8788H74.6348L80.1703 8.18457ZM86.8512 15.1591C87.4556 15.1591 87.9647 15.1273 88.3782 15.0954C88.7918 15.0636 89.1099 14.968 89.3645 14.8725C89.5871 14.7769 89.778 14.6495 89.9689 14.4266C90.1598 14.2037 90.3189 13.9171 90.4779 13.5667L90.5734 13.3757C90.7324 12.9935 90.8279 12.675 90.8597 12.3884C90.8915 12.1018 90.8915 11.9107 90.8279 11.7515C90.7642 11.5922 90.5416 11.4648 90.1598 11.3693C89.778 11.2737 89.269 11.2419 88.5691 11.2419L84.8469 11.21L83.2244 15.1909H86.8512V15.1591Z" fill="white"/>
<path d="M101.771 18.6941H110.933L109.661 21.8152H94.6445L100.18 8.18457H106.034L101.771 18.6941Z" fill="white"/>
<path d="M116.979 19.4588L114.974 21.8155H108.866L120.955 8.2168H129.831L130.945 21.8155H124.996L124.805 19.4588H116.979ZM124.423 10.9238L119.333 16.8474H124.741L124.423 10.9238Z" fill="white"/>
<path d="M153.532 21.8152H143.574L141.697 11.3374H141.443L137.434 21.8152H131.708L137.244 8.18457H147.106L149.046 18.5349H149.269L153.278 8.18457H159.068L153.532 21.8152Z" fill="white"/>
<path d="M161.772 8.18457H173.193C174.561 8.21642 175.738 8.31196 176.692 8.53489C177.647 8.72597 178.41 9.04445 178.983 9.42662C179.524 9.84063 179.874 10.3502 179.969 11.019C180.065 11.6559 179.937 12.4202 179.588 13.312L178.919 14.8725C178.538 15.796 178.092 16.6559 177.583 17.4839C177.074 18.2801 176.502 19.0445 175.865 19.7451C175.229 20.4457 174.306 20.9553 173.066 21.3056C171.825 21.6559 170.266 21.8152 168.421 21.8152H156.236L161.772 8.18457ZM168.135 18.6941L168.166 18.726H168.23H168.294C168.803 18.726 169.248 18.6941 169.63 18.5986C170.012 18.503 170.393 18.3757 170.68 18.1846C171.03 17.9935 171.316 17.7706 171.57 17.5158C171.825 17.261 172.016 16.9744 172.175 16.6559L172.239 16.5285L172.334 16.4011L172.398 16.2738L172.461 16.1464L172.589 15.8597L172.748 15.5731L172.843 15.3183L172.97 15.0317L173.098 14.7451L173.225 14.4585L173.32 14.2674L173.416 14.0445L173.479 13.9171L173.543 13.7897V13.6941L173.607 13.5667L173.734 13.1209L173.797 12.7069V12.3247L173.702 12.0062L173.384 11.6878L172.907 11.4967C172.716 11.4648 172.525 11.433 172.334 11.4011C172.143 11.3693 171.92 11.3693 171.73 11.3374H171.602H171.475H171.38H171.316H171.252L166.512 11.3056L163.522 18.5986H168.135V18.6941Z" fill="white"/>
<path d="M8.33516 8.63058H11.1029L13.8389 13.3758L15.525 10.4777L10.5303 1.78344H7.15806L9.48045 5.79617H6.71267L3.40405 0H0L10.7848 18.6943L12.4391 15.7962L8.33516 8.63058Z" fill="white"/>
<path d="M19.7876 15.9872H16.988L19.6922 11.3057H16.3517L11.3252 19.9681L13.0113 22.8662L15.3655 18.8216H18.1969L13.3295 27.0381L15.0156 29.9999L25.8322 11.3057H22.4918L19.7876 15.9872Z" fill="white"/>
<path d="M19.8509 4.74498V7.13352H14.7607L16.4787 10.0316H26.4999L28.1861 7.13352H23.1277V4.74498H31.6219L33.3399 1.7832H11.6748L13.3927 4.74498H19.8509Z" fill="white"/>
<path d="M51.2523 21.8152H45.3986L47.5619 16.4648H39.9584L37.7951 21.8152H31.9414L37.477 8.18457H43.3307L41.231 13.3438H48.8344L50.9341 8.18457H56.8196L51.2523 21.8152Z" fill="white"/>
<path d="M67.6672 17.1018L65.7266 21.8152H59.8729L61.7817 17.1018L57.6777 8.18457H64.3586L66.1401 13.4393H66.331L72.5029 8.18457H79.2473L67.6672 17.1018Z" fill="white"/>
</svg>
